<svg xmlns="http://www.w3.org/2000/svg" viewBox="0 0 1162.2 606.61" xml:space="preserve"><linearGradient id="a" gradientUnits="userSpaceOnUse" x1="23.219" y1="403" x2="620.391" y2="-15.145"><stop offset="0" style="stop-color:#a21007"/><stop offset=".045" style="stop-color:#a60f09"/><stop offset=".354" style="stop-color:#c20c16"/><stop offset=".599" style="stop-color:#d3091d"/><stop offset=".75" style="stop-color:#d9081f"/></linearGradient><path d="M641.52 15.03c-86.1 188.7-288.04 382.29-450.73 431.7C27.73 496.24-33.42 382.27 54.1 192.65l56.49-17.12c-57.27 124.18-17.22 198.79 89.62 166.4C306.8 309.64 439.14 182.86 495.86 59.04z" style="fill:url(#a)"/><linearGradient id="b" gradientUnits="userSpaceOnUse" x1="125.846" y1="238.047" x2="325.583" y2="98.19"><stop offset="0" style="stop-color:#a21007"/><stop offset=".045" style="stop-color:#a60f09"/><stop offset=".354" style="stop-color:#c20c16"/><stop offset=".599" style="stop-color:#d3091d"/><stop offset=".75" style="stop-color:#d9081f"/></linearGradient><path style="fill:url(#b)" d="M136.12 167.78c-29.18 63.32-8.81 101.33 45.61 84.86 54.44-16.45 122-81.09 150.97-144.27z"/><path d="M582.33 457.32c-5.33 0-11.23-.94-14.36-1.84v34.73h-25.2v-114.2c7.43-3.29 21.48-6.11 36.44-6.11 32.17 0 49.66 16.35 49.66 43.75 0 26.13-16.06 43.67-46.54 43.67m-2.78-70.77c-4.58 0-9.38.73-11.58 1.71v51.14c1.97.85 7.35 1.58 11.79 1.58 15.66 0 23.83-11.26 23.83-27.33 0-17.11-8.55-27.1-24.04-27.1m106.99 71.75c-28.92 0-45.03-18.99-45.03-44.31 0-25.28 16.11-44.08 45.03-44.08 28.98 0 45.06 18.8 45.06 44.08 0 25.32-16.08 44.31-45.06 44.31m0-71.62c-13.28 0-19.87 10.21-19.87 27.19 0 16.92 6.59 26.97 19.87 26.97 13.41 0 19.98-10.06 19.98-26.97 0-16.97-6.57-27.19-19.98-27.19m86.81 71.62c-12.51 0-24.82-2.81-32.26-6.14l8.16-16.3c4.91 2.63 16.1 5.48 23.27 5.48 9.15 0 14.96-3.61 14.96-9.28 0-6.25-6.43-8.95-15.35-11.65-12.6-3.88-28.41-8.93-28.41-25.57 0-14.92 13.31-24.93 36.51-24.93 12.82 0 23.14 2.62 30.71 6.11l-7.76 14.62c-4.17-2.26-13.15-4.89-19.79-4.89-8.81 0-14.08 3.77-14.08 8.78 0 6.47 6.53 8.99 15.2 11.66 13.1 4.06 29.2 8.78 29.2 25.87.01 15.88-13.88 26.24-40.36 26.24m91.02-.65c-19.28 0-28.36-8.95-28.36-26.7v-43.19h-12.79v-16h12.79V352.9l24.76-6.07v24.93h18.69v16h-18.69v41.8c0 6.9 5.04 9.27 11.5 9.27 2.63 0 5.45-.66 7.18-1.28v17.79c-2.98 1.21-9.06 2.31-15.08 2.31m-337.7-44c0 27.45-17.52 43.83-49.7 43.83-15.01 0-29.03-2.82-36.4-6.17V337.2h25.11v34.7c3.13-.95 9.07-1.88 14.33-1.88 30.54 0 46.66 17.59 46.66 43.63m-25.35 0c0-16.03-8.12-27.3-23.83-27.3-4.46 0-9.74.77-11.81 1.55v51.18c2.21.98 7.04 1.76 11.59 1.76 15.6 0 24.05-10.05 24.05-27.19" style="fill:#575756"/></svg>